<svg xmlns="http://www.w3.org/2000/svg" xmlns:xlink="http://www.w3.org/1999/xlink" width="251.13" height="133.171" viewBox="0 0 251.13 133.171">
  <defs>
    <clipPath id="clip-path">
      <rect id="Rectangle_8" data-name="Rectangle 8" width="251.13" height="133.171" fill="none"/>
    </clipPath>
  </defs>
  <g id="Group_5" data-name="Group 5" transform="translate(-789 -450)">
    <g id="Group_2" data-name="Group 2" transform="translate(789 450)">
      <g id="Group_1" data-name="Group 1" clip-path="url(#clip-path)">
        <path id="Path_1" data-name="Path 1" d="M46.638,115.879A40.146,40.146,0,0,1,29.612,113.3a27.607,27.607,0,0,1-14.46-12.6c-3.305-6.109-3.439-13.839-1.2-20.309a48.119,48.119,0,0,1,10.31-17.184c1.153-1.3,2.274-2.506,3.345-3.532L30.845,56.5a64.222,64.222,0,0,0,4.968-5.548c-.655-5.889-1.246-11.716-1.483-17.074H0V125.64H48.383q-.116-.661-.28-1.333c-.408-2.67-.922-5.51-1.465-8.428" transform="translate(0 -9.002)" fill="#eedfcb"/>
        <path id="Path_2" data-name="Path 2" d="M147.44,33.881H67.96c-.059,1.532-.165,3.129-.334,4.8a35.882,35.882,0,0,1-8.055,18.472A50.893,50.893,0,0,1,53.927,63.4c.3,2.221.623,4.431.983,6.594.185,1.147.383,2.256.573,3.387a20.973,20.973,0,0,1,6.5-3.016,20.458,20.458,0,0,1,13.8,1.1A20.89,20.89,0,0,1,86.19,82.341a23.35,23.35,0,0,1,1.168,15.578,22.3,22.3,0,0,1-9.715,12.905,37.941,37.941,0,0,1-13.931,4.785c.531,2.85,1.029,5.64,1.441,8.29.084.595.163,1.169.238,1.74h82.05Z" transform="translate(-14.329 -9.002)" fill="#d88680"/>
        <rect id="Rectangle_1" data-name="Rectangle 1" width="73.254" height="91.759" transform="translate(134.498 24.879)" fill="#a86072"/>
        <rect id="Rectangle_2" data-name="Rectangle 2" width="41.747" height="91.759" transform="translate(209.383 24.879)" fill="#68404b"/>
        <path id="Path_3" data-name="Path 3" d="M51.733,47.919a128.7,128.7,0,0,0,7.12-11.589c.433-.795.814-1.616,1.168-2.449H51.827a94.692,94.692,0,0,0-.094,14.038" transform="translate(-13.689 -9.002)" fill="#f1d9c4"/>
        <path id="Path_4" data-name="Path 4" d="M47.52,92.9a17.337,17.337,0,0,0-3.62,5.174,22.156,22.156,0,0,0-1.748,11.39,34.812,34.812,0,0,0,.711,4.352s-.21-.324-.6-.969a20.717,20.717,0,0,1-1.5-3.022,20.568,20.568,0,0,1,5.634-23.661c-.246-1.5-.495-2.99-.734-4.523-.248-1.712-.507-3.445-.763-5.189-.4.347-.81.681-1.213,1.017l-1.668,1.4c-1.244,1-2.284,1.953-3.236,2.848-4.022,3.821-7.722,8.145-9.9,12.889a18.331,18.331,0,0,0-.654,14.607c1.883,4.663,5.942,8.436,10.618,10.893a31.634,31.634,0,0,0,14.314,3.576c-.77-4.042-1.6-8.284-2.4-12.72C49.708,105.244,48.6,99.189,47.52,92.9" transform="translate(-7.174 -20.314)" fill="#f1d9c4"/>
        <path id="Path_5" data-name="Path 5" d="M85.045,112.611A18.177,18.177,0,0,0,82.2,100.325c-4.381-6.9-11.652-9.378-17.711-8.16A17.156,17.156,0,0,0,57.6,95.312c1.225,6.734,2.519,13.185,3.79,19.256.958,4.577,1.864,8.96,2.678,13.151a29.858,29.858,0,0,0,13.082-3.847,15.89,15.89,0,0,0,7.9-11.262" transform="translate(-15.304 -24.409)" fill="#eedfcb"/>
        <path id="Path_6" data-name="Path 6" d="M53.554,173.164a8.715,8.715,0,0,1-8.485-.644,6.174,6.174,0,1,0-5.026-5.252l-.022,0c0-.017.014.016.026.074a5.941,5.941,0,0,0,1.57,3.414c.159.226.322.453.516.693a11.159,11.159,0,0,0,4.528,3.2,11.6,11.6,0,0,0,7.561.167,11.074,11.074,0,0,0,6.767-6.7,13.87,13.87,0,0,0,1.043-5.355,37.413,37.413,0,0,0-.347-3.919H59.007c1.14,6.535-1.322,12.259-5.454,14.321" transform="translate(-10.625 -42.205)" fill="#68404b"/>
        <path id="Path_7" data-name="Path 7" d="M58.51,7.559c2.323.739,2.629,3.909,2.6,5.936a30.482,30.482,0,0,1-2.395,11.384h7.3C66.672,7.768,60.787-.446,55.939.018c-8.224,1.249-9.813,11.614-9.226,24.86H50.52c1.033-11.85,4.518-18.424,7.99-17.32" transform="translate(-12.382 0)" fill="#68404b"/>
        <path id="Path_8" data-name="Path 8" d="M53.886,115.61a37.941,37.941,0,0,0,13.931-4.785,22.3,22.3,0,0,0,9.715-12.9,23.352,23.352,0,0,0-1.168-15.579A20.889,20.889,0,0,0,65.952,71.463a20.454,20.454,0,0,0-13.8-1.1,20.973,20.973,0,0,0-6.5,3.016c-.191-1.131-.388-2.24-.573-3.387-.361-2.163-.68-4.373-.983-6.594a50.893,50.893,0,0,0,5.645-6.242A35.882,35.882,0,0,0,57.8,38.686c.169-1.676.275-3.273.334-4.805h-7.3c-.355.833-.735,1.654-1.169,2.449a128.528,128.528,0,0,1-7.12,11.589,94.681,94.681,0,0,1,.095-14.038H38.833c.238,5.358.829,11.185,1.484,17.074A64.126,64.126,0,0,1,35.348,56.5l-3.236,3.178c-1.071,1.026-2.193,2.232-3.346,3.533A48.111,48.111,0,0,0,18.457,80.4c-2.24,6.47-2.107,14.2,1.2,20.308a27.61,27.61,0,0,0,14.461,12.6,40.155,40.155,0,0,0,17.026,2.576c.543,2.918,1.057,5.758,1.464,8.429.111.447.2.891.28,1.333h2.678c-.075-.571-.155-1.145-.238-1.74-.412-2.65-.91-5.44-1.441-8.29M36.171,108.8c-4.676-2.456-8.735-6.23-10.618-10.893A18.331,18.331,0,0,1,26.207,83.3c2.174-4.744,5.874-9.069,9.9-12.889.952-.894,1.992-1.844,3.236-2.848l1.668-1.4c.4-.336.811-.67,1.212-1.017.256,1.744.515,3.478.763,5.189.239,1.532.488,3.02.734,4.523a20.568,20.568,0,0,0-5.634,23.661,20.79,20.79,0,0,0,1.5,3.022c.394.645.6.969.6.969a34.811,34.811,0,0,1-.711-4.352,22.156,22.156,0,0,1,1.748-11.39,17.337,17.337,0,0,1,3.62-5.174c1.085,6.289,2.188,12.343,3.241,18.063.792,4.436,1.626,8.679,2.4,12.72A31.634,31.634,0,0,1,36.171,108.8m14.418-9.635c-1.272-6.071-2.566-12.523-3.79-19.256a17.155,17.155,0,0,1,6.892-3.147c6.059-1.218,13.33,1.258,17.711,8.16A18.185,18.185,0,0,1,74.243,97.2a15.886,15.886,0,0,1-7.894,11.262,29.853,29.853,0,0,1-13.082,3.846c-.813-4.191-1.72-8.574-2.678-13.151" transform="translate(-4.503 -9.002)" fill="#68404b"/>
        <path id="Path_9" data-name="Path 9" d="M53.886,115.61a37.941,37.941,0,0,0,13.931-4.785,22.3,22.3,0,0,0,9.715-12.9,23.352,23.352,0,0,0-1.168-15.579A20.889,20.889,0,0,0,65.952,71.463a20.454,20.454,0,0,0-13.8-1.1,20.973,20.973,0,0,0-6.5,3.016c-.191-1.131-.388-2.24-.573-3.387-.361-2.163-.68-4.373-.983-6.594a50.893,50.893,0,0,0,5.645-6.242A35.882,35.882,0,0,0,57.8,38.686c.169-1.676.275-3.273.334-4.805h-7.3c-.355.833-.735,1.654-1.169,2.449a128.528,128.528,0,0,1-7.12,11.589,94.681,94.681,0,0,1,.095-14.038H38.833c.238,5.358.829,11.185,1.484,17.074A64.126,64.126,0,0,1,35.348,56.5l-3.236,3.178c-1.071,1.026-2.193,2.232-3.346,3.533A48.111,48.111,0,0,0,18.457,80.4c-2.24,6.47-2.107,14.2,1.2,20.308a27.61,27.61,0,0,0,14.461,12.6,40.155,40.155,0,0,0,17.026,2.576c.543,2.918,1.057,5.758,1.464,8.429.111.447.2.891.28,1.333h2.678c-.075-.571-.155-1.145-.238-1.74-.412-2.65-.91-5.44-1.441-8.29M36.171,108.8c-4.676-2.456-8.735-6.23-10.618-10.893A18.331,18.331,0,0,1,26.207,83.3c2.174-4.744,5.874-9.069,9.9-12.889.952-.894,1.992-1.844,3.236-2.848l1.668-1.4c.4-.336.811-.67,1.212-1.017.256,1.744.515,3.478.763,5.189.239,1.532.488,3.02.734,4.523a20.568,20.568,0,0,0-5.634,23.661,20.79,20.79,0,0,0,1.5,3.022c.394.645.6.969.6.969a34.811,34.811,0,0,1-.711-4.352,22.156,22.156,0,0,1,1.748-11.39,17.337,17.337,0,0,1,3.62-5.174c1.085,6.289,2.188,12.343,3.241,18.063.792,4.436,1.626,8.679,2.4,12.72A31.634,31.634,0,0,1,36.171,108.8m14.418-9.635c-1.272-6.071-2.566-12.523-3.79-19.256a17.155,17.155,0,0,1,6.892-3.147c6.059-1.218,13.33,1.258,17.711,8.16A18.185,18.185,0,0,1,74.243,97.2a15.886,15.886,0,0,1-7.894,11.262,29.853,29.853,0,0,1-13.082,3.846c-.813-4.191-1.72-8.574-2.678-13.151" transform="translate(-4.503 -9.002)" fill="#68404b"/>
        <rect id="Rectangle_3" data-name="Rectangle 3" width="189.965" height="0.847" transform="translate(39.652 33.422)" fill="#fff"/>
        <rect id="Rectangle_4" data-name="Rectangle 4" width="189.965" height="0.847" transform="translate(39.652 45.719)" fill="#fff"/>
        <rect id="Rectangle_5" data-name="Rectangle 5" width="189.965" height="0.847" transform="translate(39.652 58.015)" fill="#fff"/>
        <rect id="Rectangle_6" data-name="Rectangle 6" width="189.965" height="0.847" transform="translate(39.652 70.312)" fill="#fff"/>
        <rect id="Rectangle_7" data-name="Rectangle 7" width="189.965" height="0.847" transform="translate(39.652 82.608)" fill="#fff"/>
        <path id="Path_10" data-name="Path 10" d="M232.383,97.541H230.63s.477,8.061-9.709,7.936c-8.033-.1-7.369-9.47-7.043-12.451.236-2.184,1.328-7.971,11.187-7.7a3.187,3.187,0,0,0-2.276,2.81c-.831,4.336,3.32,6.089,6.18,4.981s5.628-9.778-3.6-11.9-16.292,2.769-17.9,9.318c-2.151,8.783,3.229,17.434,11.163,17.8s13.928-4.151,13.745-10.793" transform="translate(-55 -21.445)" fill="#fff"/>
        <path id="Path_11" data-name="Path 11" d="M122.847,138.837a6.407,6.407,0,0,1-.366,2.246,5.472,5.472,0,0,1-1,1.705,5.723,5.723,0,0,1-1.5,1.215,9.1,9.1,0,0,1-1.856.79,12.348,12.348,0,0,1-2.071.433,17.682,17.682,0,0,1-2.146.133,15.528,15.528,0,0,1-2.528-.183,9.77,9.77,0,0,1-2.1-.59,11.666,11.666,0,0,1-1.988-1.057q-.99-.649-2.2-1.58l3.277-2.678a5.833,5.833,0,0,0,1.19,1.538A10.116,10.116,0,0,0,111.1,142a7.98,7.98,0,0,0,1.547.765,3.815,3.815,0,0,0,1.215.266q.382,0,.864-.024t.982-.1a6.531,6.531,0,0,0,.982-.225,3.122,3.122,0,0,0,.857-.407,1.976,1.976,0,0,0,.6-.649,1.855,1.855,0,0,0,.225-.94,1.71,1.71,0,0,0-.292-.99,2.839,2.839,0,0,0-.756-.74,4.809,4.809,0,0,0-1.065-.532q-.6-.216-1.206-.383t-1.173-.291q-.566-.126-.982-.242-.766-.216-1.613-.441t-1.68-.515a11.626,11.626,0,0,1-1.589-.691,5.749,5.749,0,0,1-1.331-.956,4.107,4.107,0,0,1-1.256-3.086,6.051,6.051,0,0,1,.741-3.119,5.81,5.81,0,0,1,1.954-2.013,8.331,8.331,0,0,1,2.762-1.074,15.721,15.721,0,0,1,3.144-.315,12.723,12.723,0,0,1,2.312.224,13.369,13.369,0,0,1,2.362.665,12.147,12.147,0,0,1,2.146,1.073,6.882,6.882,0,0,1,1.664,1.447l-3.277,2.7a5.817,5.817,0,0,0-.957-1.714A5.876,5.876,0,0,0,117,128.515a5.316,5.316,0,0,0-1.414-.674,4.71,4.71,0,0,0-1.339-.217q-.6,0-1.348.051a5.232,5.232,0,0,0-1.405.283,2.859,2.859,0,0,0-1.115.706,1.8,1.8,0,0,0-.457,1.306,1.835,1.835,0,0,0,.275,1.023,2.588,2.588,0,0,0,.723.732,4.516,4.516,0,0,0,1.024.516q.574.208,1.173.366t1.165.275q.565.117,1.015.249.764.217,1.621.441t1.689.515a13.355,13.355,0,0,1,1.605.682,5.5,5.5,0,0,1,1.356.957,4.392,4.392,0,0,1,.931,1.322,4.235,4.235,0,0,1,.35,1.788" transform="translate(-27.925 -33.292)" fill="#fff"/>
        <path id="Path_12" data-name="Path 12" d="M149.546,145.145h-5.057l-5.257-19.214h5.622l3.294,13.475,2.745-13.475h5.057l3.36,13.841,3.244-13.841h3.893l-5.822,19.214h-5.057l-2.845-11.678Z" transform="translate(-36.994 -33.46)" fill="#fff"/>
        <path id="Path_13" data-name="Path 13" d="M205.309,132.067a5.458,5.458,0,0,1-.383,2.1,5.328,5.328,0,0,1-1.04,1.622,6.258,6.258,0,0,1-1.522,1.181,9.855,9.855,0,0,1-1.846.79,11.784,11.784,0,0,1-2.021.441,15.912,15.912,0,0,1-2.021.133,17.34,17.34,0,0,1-2.462-.174,14.407,14.407,0,0,1-2.4-.557,9.909,9.909,0,0,0,.582,2.088,5.8,5.8,0,0,0,1.065,1.73A4.772,4.772,0,0,0,194.9,142.6a5.638,5.638,0,0,0,2.3.433,5.249,5.249,0,0,0,1.68-.267,5.357,5.357,0,0,0,1.464-.748,5.622,5.622,0,0,0,1.173-1.148,6,6,0,0,0,.823-1.48l2.428.9a6.96,6.96,0,0,1-1.5,2.27,8.691,8.691,0,0,1-2.163,1.581,10.46,10.46,0,0,1-2.561.923,12.426,12.426,0,0,1-2.687.3,10.894,10.894,0,0,1-4.059-.74,9.355,9.355,0,0,1-5.323-5.249,11.061,11.061,0,0,1,0-8.085,9.35,9.35,0,0,1,5.323-5.249,10.894,10.894,0,0,1,4.059-.74,16.473,16.473,0,0,1,2.179.149,13.348,13.348,0,0,1,2.163.475,10.48,10.48,0,0,1,1.979.839,6.32,6.32,0,0,1,1.622,1.273,5.865,5.865,0,0,1,1.1,1.754,5.98,5.98,0,0,1,.408,2.28m-13.858,3.793q1.032.234,2.063.366a16.2,16.2,0,0,0,2.08.134,9.422,9.422,0,0,0,2.038-.209,4.407,4.407,0,0,0,1.63-.7,3.4,3.4,0,0,0,1.09-1.306,4.6,4.6,0,0,0,.4-2.03,5.777,5.777,0,0,0-.266-1.8,3.838,3.838,0,0,0-.79-1.4,3.589,3.589,0,0,0-1.289-.907,4.526,4.526,0,0,0-1.78-.325,4.026,4.026,0,0,0-1.705.35,4.428,4.428,0,0,0-1.331.94,5.8,5.8,0,0,0-.981,1.372,9.88,9.88,0,0,0-.674,1.631,10.223,10.223,0,0,0-.383,1.713,12.2,12.2,0,0,0-.116,1.629v.267a2.155,2.155,0,0,0,.016.266" transform="translate(-49.344 -33.291)" fill="#fff"/>
        <path id="Path_14" data-name="Path 14" d="M242.682,132.067a5.458,5.458,0,0,1-.383,2.1,5.329,5.329,0,0,1-1.04,1.622,6.257,6.257,0,0,1-1.522,1.181,9.852,9.852,0,0,1-1.846.79,11.785,11.785,0,0,1-2.021.441,15.911,15.911,0,0,1-2.022.133,17.34,17.34,0,0,1-2.462-.174,14.406,14.406,0,0,1-2.4-.557,9.912,9.912,0,0,0,.582,2.088,5.8,5.8,0,0,0,1.065,1.73,4.772,4.772,0,0,0,1.638,1.173,5.637,5.637,0,0,0,2.3.433,5.249,5.249,0,0,0,1.68-.267,5.356,5.356,0,0,0,1.464-.748,5.621,5.621,0,0,0,1.173-1.148,6,6,0,0,0,.823-1.48l2.428.9a6.959,6.959,0,0,1-1.5,2.27,8.691,8.691,0,0,1-2.163,1.581,10.46,10.46,0,0,1-2.561.923,12.425,12.425,0,0,1-2.687.3,10.894,10.894,0,0,1-4.059-.74,9.355,9.355,0,0,1-5.323-5.249,11.06,11.06,0,0,1,0-8.085,9.35,9.35,0,0,1,5.323-5.249,10.894,10.894,0,0,1,4.059-.74,16.473,16.473,0,0,1,2.179.149,13.348,13.348,0,0,1,2.162.475,10.481,10.481,0,0,1,1.979.839,6.32,6.32,0,0,1,1.622,1.273,5.864,5.864,0,0,1,1.1,1.754,5.98,5.98,0,0,1,.408,2.28m-13.858,3.793q1.032.234,2.063.366a16.2,16.2,0,0,0,2.08.134,9.422,9.422,0,0,0,2.038-.209,4.407,4.407,0,0,0,1.63-.7,3.4,3.4,0,0,0,1.09-1.306,4.6,4.6,0,0,0,.4-2.03,5.777,5.777,0,0,0-.266-1.8,3.837,3.837,0,0,0-.79-1.4,3.588,3.588,0,0,0-1.289-.907,4.526,4.526,0,0,0-1.78-.325,4.026,4.026,0,0,0-1.705.35,4.428,4.428,0,0,0-1.331.94,5.8,5.8,0,0,0-.981,1.372,9.872,9.872,0,0,0-.674,1.631,10.213,10.213,0,0,0-.383,1.713,12.2,12.2,0,0,0-.116,1.629v.267a2.146,2.146,0,0,0,.016.266" transform="translate(-59.274 -33.291)" fill="#fff"/>
        <path id="Path_15" data-name="Path 15" d="M268.527,142.587h-5.639V125.6h-3.494v-2.229h3.494V116.3h5.639v7.07h5.823V125.6h-5.823Z" transform="translate(-68.922 -30.902)" fill="#fff"/>
        <path id="Path_16" data-name="Path 16" d="M306.657,138.837a6.408,6.408,0,0,1-.366,2.246,5.457,5.457,0,0,1-1,1.705A5.72,5.72,0,0,1,303.8,144a9.1,9.1,0,0,1-1.855.79,12.358,12.358,0,0,1-2.071.433,17.68,17.68,0,0,1-2.146.133,15.523,15.523,0,0,1-2.528-.183,9.771,9.771,0,0,1-2.1-.59,11.674,11.674,0,0,1-1.988-1.057q-.989-.649-2.2-1.58l3.277-2.678a5.812,5.812,0,0,0,1.189,1.538,10.118,10.118,0,0,0,1.539,1.19,8.02,8.02,0,0,0,1.547.765,3.824,3.824,0,0,0,1.215.266q.382,0,.865-.024t.981-.1a6.534,6.534,0,0,0,.982-.225,3.124,3.124,0,0,0,.857-.407,1.978,1.978,0,0,0,.6-.649,1.854,1.854,0,0,0,.224-.94,1.71,1.71,0,0,0-.291-.99,2.86,2.86,0,0,0-.756-.74,4.813,4.813,0,0,0-1.065-.532q-.6-.216-1.206-.383t-1.173-.291q-.566-.126-.981-.242-.765-.216-1.614-.441t-1.68-.515a11.618,11.618,0,0,1-1.588-.691,5.751,5.751,0,0,1-1.331-.956,4.107,4.107,0,0,1-1.256-3.086,6.05,6.05,0,0,1,.741-3.119,5.818,5.818,0,0,1,1.955-2.013,8.318,8.318,0,0,1,2.762-1.074,15.714,15.714,0,0,1,3.144-.315,12.729,12.729,0,0,1,2.313.224,13.363,13.363,0,0,1,2.362.665,12.159,12.159,0,0,1,2.146,1.073,6.9,6.9,0,0,1,1.664,1.447l-3.278,2.7a5.814,5.814,0,0,0-.956-1.714,5.9,5.9,0,0,0-1.281-1.173,5.3,5.3,0,0,0-1.414-.674,4.7,4.7,0,0,0-1.339-.217q-.6,0-1.348.051a5.236,5.236,0,0,0-1.406.283,2.852,2.852,0,0,0-1.114.706,1.8,1.8,0,0,0-.458,1.306,1.836,1.836,0,0,0,.275,1.023,2.586,2.586,0,0,0,.723.732,4.521,4.521,0,0,0,1.023.516q.574.208,1.173.366t1.165.275q.566.117,1.015.249.765.217,1.622.441t1.689.515a13.406,13.406,0,0,1,1.605.682,5.477,5.477,0,0,1,1.355.957,4.377,4.377,0,0,1,.931,1.322,4.223,4.223,0,0,1,.35,1.788" transform="translate(-76.763 -33.292)" fill="#fff"/>
        <path id="Path_17" data-name="Path 17" d="M164.084,56.689a23.723,23.723,0,0,1-.568,5.034,30.178,30.178,0,0,1-1.593,5.1,28.412,28.412,0,0,1-2.466,4.7,20.043,20.043,0,0,1-3.207,3.836l-2.578-1.4a16.8,16.8,0,0,0,1.076-2.375q.488-1.32.893-2.781t.711-3q.3-1.542.518-3.075t.314-2.973q.1-1.442.1-2.7,0-.71-.041-1.543a15.432,15.432,0,0,0-.173-1.665,9.289,9.289,0,0,0-.4-1.593,4.823,4.823,0,0,0-.72-1.36,3.374,3.374,0,0,0-1.137-.954,3.492,3.492,0,0,0-1.634-.355,2.573,2.573,0,0,0-1.593.5,4.373,4.373,0,0,0-1.126,1.289,7.311,7.311,0,0,0-.74,1.787,15.885,15.885,0,0,0-.416,2q-.142,1-.193,1.918t-.051,1.543V70.369h-6.84V59.449q0-.71.021-1.715t-.051-2.1a19.916,19.916,0,0,0-.264-2.182,7.314,7.314,0,0,0-.609-1.938,3.8,3.8,0,0,0-1.126-1.391,2.876,2.876,0,0,0-1.786-.538,2.337,2.337,0,0,0-1.533.507,4.12,4.12,0,0,0-1.035,1.309,7.71,7.71,0,0,0-.649,1.806,17.247,17.247,0,0,0-.345,2.009q-.111,1-.132,1.908t-.02,1.492V70.369h-6.88V46.926h2.638l2.516,5.46a9.2,9.2,0,0,1,2.69-4.434,7.187,7.187,0,0,1,4.881-1.593,8.394,8.394,0,0,1,4.547,1.137,7.5,7.5,0,0,1,2.841,3.694,12.453,12.453,0,0,1,1.309-2.009,8.1,8.1,0,0,1,1.6-1.522,6.861,6.861,0,0,1,1.958-.964,7.958,7.958,0,0,1,2.375-.335,9.718,9.718,0,0,1,4.089.781,7.343,7.343,0,0,1,2.771,2.162,8.836,8.836,0,0,1,1.563,3.278,16.5,16.5,0,0,1,.487,4.11" transform="translate(-33.961 -12.317)" fill="#fff"/>
        <path id="Path_18" data-name="Path 18" d="M53.886,115.61a37.941,37.941,0,0,0,13.931-4.785,22.3,22.3,0,0,0,9.715-12.9,23.352,23.352,0,0,0-1.168-15.579A20.889,20.889,0,0,0,65.952,71.463a20.454,20.454,0,0,0-13.8-1.1,20.973,20.973,0,0,0-6.5,3.016c-.191-1.131-.388-2.24-.573-3.387-.361-2.163-.68-4.373-.983-6.594a50.893,50.893,0,0,0,5.645-6.242A35.882,35.882,0,0,0,57.8,38.686c.169-1.676.275-3.273.334-4.805h-7.3c-.355.833-.735,1.654-1.169,2.449a128.528,128.528,0,0,1-7.12,11.589,94.681,94.681,0,0,1,.095-14.038H38.833c.238,5.358.829,11.185,1.484,17.074A64.126,64.126,0,0,1,35.348,56.5l-3.236,3.178c-1.071,1.026-2.193,2.232-3.346,3.533A48.111,48.111,0,0,0,18.457,80.4c-2.24,6.47-2.107,14.2,1.2,20.308a27.61,27.61,0,0,0,14.461,12.6,40.155,40.155,0,0,0,17.026,2.576c.543,2.918,1.057,5.758,1.464,8.429.111.447.2.891.28,1.333h2.678c-.075-.571-.155-1.145-.238-1.74-.412-2.65-.91-5.44-1.441-8.29M36.171,108.8c-4.676-2.456-8.735-6.23-10.618-10.893A18.331,18.331,0,0,1,26.207,83.3c2.174-4.744,5.874-9.069,9.9-12.889.952-.894,1.992-1.844,3.236-2.848l1.668-1.4c.4-.336.811-.67,1.212-1.017.256,1.744.515,3.478.763,5.189.239,1.532.488,3.02.734,4.523a20.568,20.568,0,0,0-5.634,23.661,20.79,20.79,0,0,0,1.5,3.022c.394.645.6.969.6.969a34.811,34.811,0,0,1-.711-4.352,22.156,22.156,0,0,1,1.748-11.39,17.337,17.337,0,0,1,3.62-5.174c1.085,6.289,2.188,12.343,3.241,18.063.792,4.436,1.626,8.679,2.4,12.72A31.634,31.634,0,0,1,36.171,108.8m14.418-9.635c-1.272-6.071-2.566-12.523-3.79-19.256a17.155,17.155,0,0,1,6.892-3.147c6.059-1.218,13.33,1.258,17.711,8.16A18.185,18.185,0,0,1,74.243,97.2a15.886,15.886,0,0,1-7.894,11.262,29.853,29.853,0,0,1-13.082,3.846c-.813-4.191-1.72-8.574-2.678-13.151" transform="translate(-4.503 -9.002)" fill="#68404b"/>
      </g>
    </g>
  </g>
</svg>
