<svg xmlns="http://www.w3.org/2000/svg" version="1.1" xmlns:xlink="http://www.w3.org/1999/xlink" width="512" height="512" x="0" y="0" viewBox="0 0 32 32" style="enable-background:new 0 0 512 512" xml:space="preserve"><g><path d="M16 16a7 7 0 1 0-7-7 7.008 7.008 0 0 0 7 7zm0-12a5 5 0 1 1-5 5 5.006 5.006 0 0 1 5-5zm11.7 22.365a10.256 10.256 0 0 0-.59-1.766C25.327 20.529 21.071 18 16 18c-5.757 0-10.448 3.324-11.674 8.27A3.008 3.008 0 0 0 7.242 30h17.52a3.015 3.015 0 0 0 2.379-1.154 2.905 2.905 0 0 0 .559-2.481zm-2.126 1.241a1.028 1.028 0 0 1-.809.394H7.242a1.006 1.006 0 0 1-.974-1.249C7.283 22.65 11.1 20 16 20c4.264 0 7.818 2.069 9.275 5.4a8.33 8.33 0 0 1 .477 1.427.907.907 0 0 1-.181.779z" data-name="Layer 2" fill="#000000" opacity="1" data-original="#000000"></path></g></svg>