<svg xmlns="http://www.w3.org/2000/svg" version="1.1" xmlns:xlink="http://www.w3.org/1999/xlink" width="512" height="512" x="0" y="0" viewBox="0 0 24 24" style="enable-background:new 0 0 512 512" xml:space="preserve" fill-rule="evenodd"><g><path d="M10 .75c5.105 0 9.25 4.145 9.25 9.25s-4.145 9.25-9.25 9.25S.75 15.105.75 10 4.895.75 10 .75zm0 1.5c-4.277 0-7.75 3.473-7.75 7.75s3.473 7.75 7.75 7.75 7.75-3.473 7.75-7.75S14.277 2.25 10 2.25z" fill="#000000" opacity="1" data-original="#000000"></path><path d="M10 4.75a.75.75 0 0 1 0-1.5c2.346 0 4.415 1.2 5.625 3.019a.75.75 0 0 1-1.25.83A5.248 5.248 0 0 0 10 4.75zM15.47 16.53a.749.749 0 1 1 1.06-1.06l6.5 6.5a.749.749 0 1 1-1.06 1.06z" fill="#000000" opacity="1" data-original="#000000"></path></g></svg>